<mxfile host="app.diagrams.net" agent="Mozilla/5.0 (Macintosh; Intel Mac OS X 10_15_7) AppleWebKit/605.1.15 (KHTML, like Gecko) Version/17.6 Safari/605.1.15" version="26.0.7">
  <diagram name="Page-1" id="N3E3quirpvf3MAqCJ4kZ">
    <mxGraphModel dx="1122" dy="761" grid="1" gridSize="10" guides="1" tooltips="1" connect="1" arrows="1" fold="1" page="1" pageScale="1" pageWidth="827" pageHeight="1169" math="0" shadow="0">
      <root>
        <mxCell id="0" />
        <mxCell id="1" parent="0" />
        <mxCell id="sMF6uzHYGY8i6nXPOo1G-1" value="&lt;font style=&quot;font-size: 16px;&quot;&gt;DATASET&amp;nbsp;&lt;/font&gt;" style="rounded=0;whiteSpace=wrap;html=1;fillColor=#dae8fc;strokeColor=#6c8ebf;" vertex="1" parent="1">
          <mxGeometry x="320" y="40" width="140" height="60" as="geometry" />
        </mxCell>
        <mxCell id="sMF6uzHYGY8i6nXPOo1G-7" value="" style="edgeStyle=orthogonalEdgeStyle;rounded=0;orthogonalLoop=1;jettySize=auto;html=1;" edge="1" parent="1" source="sMF6uzHYGY8i6nXPOo1G-2" target="sMF6uzHYGY8i6nXPOo1G-6">
          <mxGeometry relative="1" as="geometry" />
        </mxCell>
        <mxCell id="sMF6uzHYGY8i6nXPOo1G-2" value="&lt;font style=&quot;font-size: 16px;&quot;&gt;Preprocessing&lt;/font&gt;" style="rounded=0;whiteSpace=wrap;html=1;fillColor=#ffe6cc;strokeColor=#d79b00;" vertex="1" parent="1">
          <mxGeometry x="320" y="140" width="140" height="60" as="geometry" />
        </mxCell>
        <mxCell id="sMF6uzHYGY8i6nXPOo1G-3" value="&lt;font style=&quot;font-size: 15px;&quot;&gt;1. Normalization&lt;/font&gt;&lt;div&gt;&lt;font style=&quot;font-size: 15px;&quot;&gt;2. Cleaning Data&lt;/font&gt;&lt;/div&gt;" style="shape=document;whiteSpace=wrap;html=1;boundedLbl=1;size=0.125;align=center;fillColor=#ffe6cc;strokeColor=#d79b00;" vertex="1" parent="1">
          <mxGeometry x="540" y="140" width="160" height="80" as="geometry" />
        </mxCell>
        <mxCell id="sMF6uzHYGY8i6nXPOo1G-4" value="" style="endArrow=classic;html=1;rounded=0;exitX=1;exitY=0.5;exitDx=0;exitDy=0;entryX=-0.025;entryY=0.375;entryDx=0;entryDy=0;entryPerimeter=0;" edge="1" parent="1" source="sMF6uzHYGY8i6nXPOo1G-2" target="sMF6uzHYGY8i6nXPOo1G-3">
          <mxGeometry width="50" height="50" relative="1" as="geometry">
            <mxPoint x="390" y="200" as="sourcePoint" />
            <mxPoint x="440" y="150" as="targetPoint" />
          </mxGeometry>
        </mxCell>
        <mxCell id="sMF6uzHYGY8i6nXPOo1G-5" value="" style="endArrow=classic;html=1;rounded=0;exitX=0.5;exitY=1;exitDx=0;exitDy=0;entryX=0.5;entryY=0;entryDx=0;entryDy=0;" edge="1" parent="1" source="sMF6uzHYGY8i6nXPOo1G-1" target="sMF6uzHYGY8i6nXPOo1G-2">
          <mxGeometry width="50" height="50" relative="1" as="geometry">
            <mxPoint x="390" y="200" as="sourcePoint" />
            <mxPoint x="440" y="150" as="targetPoint" />
          </mxGeometry>
        </mxCell>
        <mxCell id="sMF6uzHYGY8i6nXPOo1G-14" value="" style="edgeStyle=orthogonalEdgeStyle;rounded=0;orthogonalLoop=1;jettySize=auto;html=1;" edge="1" parent="1" source="sMF6uzHYGY8i6nXPOo1G-6" target="sMF6uzHYGY8i6nXPOo1G-13">
          <mxGeometry relative="1" as="geometry" />
        </mxCell>
        <mxCell id="sMF6uzHYGY8i6nXPOo1G-6" value="&lt;font style=&quot;font-size: 16px;&quot;&gt;EDA&lt;/font&gt;" style="rounded=0;whiteSpace=wrap;html=1;fillColor=#ffe6cc;strokeColor=#d79b00;" vertex="1" parent="1">
          <mxGeometry x="320" y="240" width="140" height="60" as="geometry" />
        </mxCell>
        <mxCell id="sMF6uzHYGY8i6nXPOo1G-12" value="&lt;font style=&quot;font-size: 16px;&quot;&gt;Custom BERT Model&lt;/font&gt;" style="rounded=0;whiteSpace=wrap;html=1;fillColor=#ffe6cc;strokeColor=#d79b00;" vertex="1" parent="1">
          <mxGeometry x="210" y="360" width="195" height="60" as="geometry" />
        </mxCell>
        <mxCell id="sMF6uzHYGY8i6nXPOo1G-13" value="" style="rounded=0;whiteSpace=wrap;html=1;fillColor=#f5f5f5;strokeColor=#666666;fontColor=#333333;" vertex="1" parent="1">
          <mxGeometry x="190" y="330" width="400" height="210" as="geometry" />
        </mxCell>
        <mxCell id="sMF6uzHYGY8i6nXPOo1G-18" value="" style="edgeStyle=orthogonalEdgeStyle;rounded=0;orthogonalLoop=1;jettySize=auto;html=1;" edge="1" parent="1" source="sMF6uzHYGY8i6nXPOo1G-15" target="sMF6uzHYGY8i6nXPOo1G-17">
          <mxGeometry relative="1" as="geometry">
            <Array as="points">
              <mxPoint x="320" y="450" />
              <mxPoint x="375" y="450" />
            </Array>
          </mxGeometry>
        </mxCell>
        <mxCell id="sMF6uzHYGY8i6nXPOo1G-15" value="&lt;font style=&quot;font-size: 15px;&quot;&gt;Custom BERT Model&lt;/font&gt;" style="rounded=0;whiteSpace=wrap;html=1;fillColor=#f8cecc;strokeColor=#b85450;" vertex="1" parent="1">
          <mxGeometry x="220" y="370" width="150" height="60" as="geometry" />
        </mxCell>
        <mxCell id="sMF6uzHYGY8i6nXPOo1G-16" value="&lt;font style=&quot;font-size: 15px;&quot;&gt;Other DL Models&lt;/font&gt;" style="rounded=0;whiteSpace=wrap;html=1;fillColor=#d5e8d4;strokeColor=#82b366;" vertex="1" parent="1">
          <mxGeometry x="414" y="370" width="150" height="60" as="geometry" />
        </mxCell>
        <mxCell id="sMF6uzHYGY8i6nXPOo1G-22" value="" style="edgeStyle=orthogonalEdgeStyle;rounded=0;orthogonalLoop=1;jettySize=auto;html=1;" edge="1" parent="1" source="sMF6uzHYGY8i6nXPOo1G-17" target="sMF6uzHYGY8i6nXPOo1G-21">
          <mxGeometry relative="1" as="geometry" />
        </mxCell>
        <mxCell id="sMF6uzHYGY8i6nXPOo1G-17" value="&lt;font style=&quot;font-size: 15px;&quot;&gt;Compare Results&lt;/font&gt;" style="rounded=0;whiteSpace=wrap;html=1;fillColor=#ffe6cc;strokeColor=#d79b00;" vertex="1" parent="1">
          <mxGeometry x="315" y="470" width="150" height="60" as="geometry" />
        </mxCell>
        <mxCell id="sMF6uzHYGY8i6nXPOo1G-20" value="" style="endArrow=classic;html=1;rounded=0;exitX=0.5;exitY=1;exitDx=0;exitDy=0;entryX=0.75;entryY=0;entryDx=0;entryDy=0;" edge="1" parent="1">
          <mxGeometry width="50" height="50" relative="1" as="geometry">
            <mxPoint x="463" y="430" as="sourcePoint" />
            <mxPoint x="410.5" y="470" as="targetPoint" />
            <Array as="points">
              <mxPoint x="463" y="450" />
              <mxPoint x="410" y="450" />
            </Array>
          </mxGeometry>
        </mxCell>
        <mxCell id="sMF6uzHYGY8i6nXPOo1G-24" value="" style="edgeStyle=orthogonalEdgeStyle;rounded=0;orthogonalLoop=1;jettySize=auto;html=1;" edge="1" parent="1" source="sMF6uzHYGY8i6nXPOo1G-21" target="sMF6uzHYGY8i6nXPOo1G-23">
          <mxGeometry relative="1" as="geometry" />
        </mxCell>
        <mxCell id="sMF6uzHYGY8i6nXPOo1G-21" value="&lt;font style=&quot;font-size: 15px;&quot;&gt;EVALUATION&lt;/font&gt;" style="rounded=0;whiteSpace=wrap;html=1;fillColor=#ffe6cc;strokeColor=#d79b00;" vertex="1" parent="1">
          <mxGeometry x="280" y="555" width="220" height="60" as="geometry" />
        </mxCell>
        <mxCell id="sMF6uzHYGY8i6nXPOo1G-23" value="&lt;font style=&quot;font-size: 15px;&quot;&gt;VISUALIZATION&lt;/font&gt;" style="rounded=0;whiteSpace=wrap;html=1;fillColor=#ffe6cc;strokeColor=#d79b00;" vertex="1" parent="1">
          <mxGeometry x="280" y="650" width="220" height="60" as="geometry" />
        </mxCell>
      </root>
    </mxGraphModel>
  </diagram>
</mxfile>
